HIERARCHY
ROOT Hips
{
	OFFSET 0.00000 0.00000 0.00000
	CHANNELS 6 Xposition Yposition Zposition Zrotation Yrotation Xrotation 
	JOINT LHipJoint
	{
		OFFSET 0 0 0
		CHANNELS 3 Zrotation Yrotation Xrotation
		JOINT LeftHip
		{
			OFFSET 1.36306 -1.79463 0.83929
			CHANNELS 3 Zrotation Yrotation Xrotation
			JOINT LeftKnee
			{
				OFFSET 2.44811 -6.72613 0.00000
				CHANNELS 3 Zrotation Yrotation Xrotation
				JOINT LeftAnkle
				{
					OFFSET 2.56220 -7.03959 0.00000
					CHANNELS 3 Zrotation Yrotation Xrotation
					JOINT LeftToe
					{
						OFFSET 0.15764 -0.43311 2.32255
						CHANNELS 3 Zrotation Yrotation Xrotation
						End Site
						{
							OFFSET 0.00000 -0.00000 1.18966
						}
					}
				}
			}
		}
	}
	JOINT RHipJoint
	{
		OFFSET 0 0 0
		CHANNELS 3 Zrotation Yrotation Xrotation
		JOINT RightHip
		{
			OFFSET -1.30552 -1.79463 0.83929
			CHANNELS 3 Zrotation Yrotation Xrotation
			JOINT RightKnee
			{
				OFFSET -2.54253 -6.98555 0.00000
				CHANNELS 3 Zrotation Yrotation Xrotation
				JOINT RightAnkle
				{
					OFFSET -2.56826 -7.05623 0.00000
					CHANNELS 3 Zrotation Yrotation Xrotation
					JOINT RightToe
					{
						OFFSET -0.16473 -0.45259 2.36315
						CHANNELS 3 Zrotation Yrotation Xrotation
						End Site
						{
							OFFSET -0.00000 -0.00000 1.21082
						}
					}
				}
			}
		}
	}
	JOINT lowerback
	{
		OFFSET 0 0 0
		CHANNELS 3 Zrotation Yrotation Xrotation
		JOINT Chest
		{
			OFFSET 0.02827 2.03559 -0.19338
			CHANNELS 3 Zrotation Yrotation Xrotation
			JOINT Chest2
			{
				OFFSET 0.05672 2.04885 -0.04275
				CHANNELS 3 Zrotation Yrotation Xrotation
				JOINT lowerneck
				{
					OFFSET 0 0 0
					CHANNELS 3 Zrotation Yrotation Xrotation
					JOINT Neck
					{
						OFFSET -0.05417 1.74624 0.17202
						CHANNELS 3 Zrotation Yrotation Xrotation
						JOINT Head
						{
							OFFSET 0.10407 1.76136 -0.12397
							CHANNELS 3 Zrotation Yrotation Xrotation
							End Site
							{
								OFFSET 0.03720 1.77044 -0.06241
							}
						}
					}
				}
				JOINT LeftCollar
				{
					OFFSET 0 0 0
					CHANNELS 3 Zrotation Yrotation Xrotation
					JOINT LeftShoulder
					{
						OFFSET 3.36241 1.20089 -0.31121
CHANNELS 3 Zrotation Xrotation Yrotation
						JOINT LeftElbow
						{
OFFSET 0 -4.983000 -0.000000
CHANNELS 3 Zrotation Xrotation Yrotation
							JOINT LeftWrist
							{
OFFSET 0 -3.483560 -0.000000
CHANNELS 3 Zrotation Xrotation Yrotation
								JOINT lhand
								{
									OFFSET 0 0 0
CHANNELS 3 Zrotation Xrotation Yrotation
									JOINT LFingers
									{
OFFSET 0 -0.715260 -0.000000
CHANNELS 3 Zrotation Xrotation Yrotation
										End Site
										{
OFFSET 0 -0.576660 -0.000000
										}
									}
								}
								JOINT LThumb
								{
OFFSET 0 0.000000 0.000000
CHANNELS 3 Zrotation Xrotation Yrotation
									End Site
									{
OFFSET 0 -0.585470 0.585470
									}
								}
							}
						}
					}
				}
				JOINT RightCollar
				{
					OFFSET 0 0 0
					CHANNELS 3 Zrotation Yrotation Xrotation
					JOINT RightShoulder
					{
						OFFSET -3.13660 1.37405 -0.40465
CHANNELS 3 Zrotation Xrotation Yrotation
						JOINT RightElbow
						{
OFFSET 0 -5.241900 -0.000000
CHANNELS 3 Zrotation Xrotation Yrotation
							JOINT RightWrist
							{
OFFSET 0 -3.444170 -0.000000
CHANNELS 3 Zrotation Xrotation Yrotation
								JOINT rhand
								{
									OFFSET 0 0 0
CHANNELS 3 Zrotation Xrotation Yrotation
									JOINT RFingers
									{
OFFSET 0 -0.622530 -0.000000
CHANNELS 3 Zrotation Xrotation Yrotation
										End Site
										{
OFFSET 0 -0.501900 -0.000000
										}
									}
								}
								JOINT RThumb
								{
OFFSET 0 0.000000 0.000000
CHANNELS 3 Zrotation Xrotation Yrotation
									End Site
									{
OFFSET 0 -0.509560 0.509560
									}
								}
							}
						}
					}
				}
			}
		}
	}
}
MOTION
Frames: 4
Frame Time: 0.008333333333333333
9.084795 17.986909 31.768082 -174.704007 1.414541 174.990371 0.000000 0.000000 0.000000 -10.898731 -1.355568 -4.019444 1.176424 6.884003 19.372245 0.300359 -0.767675 -10.110796 0.024970 -1.018312 -2.799192 0.000000 0.000000 0.000000 21.599760 3.492984 -3.244355 -1.461423 -7.640328 21.626773 -0.247982 -4.703178 -12.326607 -0.157933 -2.559007 7.053408 2.371907 0.602713 11.533999 3.483499 1.565867 -0.156196 2.058657 0.835587 -6.690181 -6.720205 -4.062290 -9.177781 5.281823 -5.635498 14.051757 2.303409 -2.824161 6.102746 0.000000 0.000000 0.000000 -0.716123 10.876142 -36.834646 31.565169 -42.196508 12.448205 22.325875 -9.789970 14.080387 0.000000 0.000000 0.000000 -7.125000 0.000000 0.000000 -3.490908 14.828671 -2.485767 0.000000 0.000000 0.000000 -5.538652 3.119575 22.973304 -20.312449 -31.016538 -5.691729 -22.803416 -5.865803 24.833389 0.000000 0.000000 0.000000 7.125000 0.000000 0.000000 7.393415 56.484212 -2.089500
9.088660 17.997702 31.759194 -175.079140 1.403483 175.626010 0.000000 0.000000 0.000000 -11.164725 -0.827659 -4.439912 1.085548 6.621731 18.599483 0.300347 -1.160890 -10.010400 0.008737 -0.594232 -1.633048 0.000000 0.000000 0.000000 21.196203 3.959193 -4.152616 -1.526904 -7.802046 22.114357 -0.230083 -5.008080 -12.292772 -0.090422 -1.939660 5.338887 2.025727 0.584436 12.285043 3.519534 1.534729 -0.195464 2.292702 0.832245 -7.166070 -7.135127 -3.952957 -10.089207 4.821877 -5.166735 13.399533 2.254672 -2.599168 6.025501 0.000000 0.000000 0.000000 0.062844 9.178355 -39.398664 33.931623 -44.033759 14.065612 22.440705 -7.096297 14.178336 0.000000 0.000000 0.000000 -7.125000 0.000000 0.000000 -3.417817 14.711369 -2.442228 0.000000 0.000000 0.000000 -6.163957 0.482056 22.961620 -21.662150 -32.592900 -6.402982 -22.149523 -7.597919 21.909995 0.000000 0.000000 0.000000 7.125000 0.000000 0.000000 6.967881 53.318882 -1.431861
9.083168 17.969327 31.740895 -175.582144 1.598378 175.837379 0.000000 0.000000 0.000000 -11.773994 -1.424376 -4.609301 1.145651 6.796676 19.114299 0.349022 -0.735173 -10.925087 0.014077 -0.764491 -2.101047 0.000000 0.000000 0.000000 20.673240 4.494202 -4.544927 -1.637036 -8.065123 22.912102 -0.279960 -4.920396 -13.027527 -0.112601 -2.161597 5.952594 1.856502 0.677828 13.047535 3.401653 1.653383 -0.154442 2.234779 0.891012 -7.557423 -6.676422 -3.638177 -9.978281 3.371967 -4.523070 12.465773 1.783801 -2.343098 5.631713 0.000000 0.000000 0.000000 0.463900 7.682769 -39.487672 33.955322 -44.051550 14.082046 22.525014 -5.777525 15.157581 0.000000 0.000000 0.000000 -7.125000 0.000000 0.000000 -3.416586 13.655956 -2.517996 0.000000 0.000000 0.000000 -5.844132 -1.364732 21.053045 -22.873068 -33.949572 -7.067371 -22.021110 -5.818696 21.822572 0.000000 0.000000 0.000000 7.125000 0.000000 0.000000 7.069742 53.203982 -1.432959
9.074360 17.956025 31.684673 -175.586212 2.077807 175.757905 0.000000 0.000000 0.000000 -11.812170 -1.250522 -4.404199 1.167580 6.859228 19.298954 0.376545 -0.669568 -11.375405 0.019890 -0.910213 -2.501781 0.000000 0.000000 0.000000 20.734303 4.942195 -4.498133 -1.726466 -8.271468 23.541682 -0.290301 -5.148161 -13.380854 -0.063382 -1.624727 4.469627 1.999492 0.703363 13.184190 3.533438 1.741904 0.291069 2.272751 0.947541 -7.160506 -6.316951 -3.254691 -9.802910 2.443351 -3.879252 11.315092 1.496035 -2.050631 5.185687 0.000000 0.000000 0.000000 0.777954 6.535580 -38.604020 33.524707 -43.729400 13.783427 22.502944 -6.018379 13.565480 0.000000 0.000000 0.000000 -7.125000 0.000000 0.000000 -3.343011 15.359744 -2.342292 0.000000 0.000000 0.000000 -5.702105 -2.694434 20.234205 -24.112637 -35.283025 -7.771605 -23.464222 -5.673239 20.886359 0.000000 0.000000 0.000000 7.125000 0.000000 0.000000 5.301423 52.490078 -0.979412
